<svg class="icon icon-afterpay" width="75" height="15" viewBox="0 0 75 14.43" xmlns="http://www.w3.org/2000/svg" focusable="false" aria-hidden="true">
  <!-- <defs>
    <clipPath id="svgiconid_afterpay-logo_a_4_B5RnE">
      <path pid="0" _fill="none" d="M0 0h75v14.43H0z"></path>
    </clipPath>
  </defs>
  <g clip-path="url(#svgiconid_afterpay-logo_a_4_B5RnE)"> -->
    <path pid="1" d="M73.857 2.911l-2.259-1.292L69.314.307a2.275 2.275 0 00-3.408 1.971v.291a.45.45 0 00.228.392l1.064.607a.444.444 0 00.659-.385v-.69a.451.451 0 01.672-.392l2.089 1.2L72.7 4.496a.45.45 0 010 .777l-2.081 1.196-2.089 1.2a.451.451 0 01-.672-.392v-.345a2.273 2.273 0 00-3.408-1.971L62.159 6.28l-2.252 1.289a2.28 2.28 0 000 3.949l2.259 1.293 2.291 1.312a2.275 2.275 0 003.408-1.971v-.294a.451.451 0 00-.229-.392l-1.064-.607a.444.444 0 00-.659.385v.7a.45.45 0 01-.672.392l-2.089-1.2-2.082-1.195a.45.45 0 010-.777l2.081-1.195 2.09-1.2a.45.45 0 01.672.392v.346a2.273 2.273 0 003.408 1.971l2.29-1.309 2.259-1.3a2.28 2.28 0 000-3.949M59.045 3.342l-5.294 10.921h-2.193l1.972-4.08-3.108-6.841h2.252l2 4.583 2.18-4.583zM6.175 7.22a2.111 2.111 0 10-2.109 2.22 2.119 2.119 0 002.109-2.22m.013 3.878v-1.006a3.105 3.105 0 01-2.448 1.129 3.785 3.785 0 01-3.741-4 3.845 3.845 0 013.787-4.015 3.094 3.094 0 012.4 1.116v-.979h1.909v7.755zM17.364 9.381c-.666 0-.855-.248-.855-.9V5.033h1.227v-1.69h-1.227V1.449h-1.952v1.894h-2.52V2.57c0-.653.248-.9.933-.9h.431V.17h-.947c-1.612 0-2.376.529-2.376 2.141v1.032H9.002v1.69h1.084v6.064h1.952V5.033h2.52v3.8c0 1.58.607 2.265 2.187 2.265h1.005V9.381zM24.376 6.522a1.858 1.858 0 00-1.921-1.613 1.908 1.908 0 00-1.952 1.612zm-3.891 1.207a1.93 1.93 0 002 1.8 2.048 2.048 0 001.828-1.005h2a4.05 4.05 0 01-7.866-1.293 4.011 4.011 0 118.023 0 2.568 2.568 0 01-.046.5zM38.9 7.22a2.111 2.111 0 10-2.108 2.22A2.15 2.15 0 0038.9 7.22m-6.143 7.043V3.342h1.906v1.012a3.081 3.081 0 012.448-1.149 3.817 3.817 0 013.741 4 3.856 3.856 0 01-3.786 4.015 3 3 0 01-2.344-1.038v4.08zM47.733 7.22a2.111 2.111 0 10-2.109 2.22 2.119 2.119 0 002.109-2.22m.013 3.878v-1.006a3.1 3.1 0 01-2.448 1.129 3.785 3.785 0 01-3.741-4 3.845 3.845 0 013.786-4.015 3.094 3.094 0 012.4 1.116v-.979h1.906v7.755zM29.317 4.108a2.028 2.028 0 012.513-.725v1.978a2.45 2.45 0 00-1.377-.353 1.366 1.366 0 00-1.077 1.5v4.589h-1.965V3.342h1.906z" fill="#fff"></path>
  <!-- </g> -->
</svg>