<svg viewBox="0 0 48.832 11" width="62" height="15" aria-hidden="true" focusable="false" class="icon icon-klarna" xmlns="http://www.w3.org/2000/svg" role="presentation">
  <path fill="#fff" d="M47.442 8.146a1.4 1.4 0 101.39 1.4 1.4 1.4 0 00-1.39-1.4zm-4.574-1.085a2.009 2.009 0 00-4.014 0 2.009 2.009 0 004.014 0zm.007-3.733h2.215v7.465h-2.214v-.477a3.859 3.859 0 01-2.2.684 3.939 3.939 0 010-7.878 3.858 3.858 0 012.2.684v-.477zM25.151 4.3v-.971h-2.268v7.465h2.273V7.308c0-1.176 1.263-1.808 2.139-1.808h.026V3.329a2.752 2.752 0 00-2.171.972zM19.5 7.061a2.009 2.009 0 00-4.014 0 2.009 2.009 0 004.014 0zm.007-3.733h2.215v7.465h-2.213v-.477a3.859 3.859 0 01-2.2.684 3.939 3.939 0 010-7.878 3.858 3.858 0 012.2.684v-.477zm13.332-.2a2.681 2.681 0 00-2.28 1.042v-.841h-2.205v7.464h2.232V6.871a1.567 1.567 0 011.663-1.691c.973 0 1.533.587 1.533 1.676v3.938h2.212V6.046a2.94 2.94 0 00-3.153-2.919zm-22.655 7.665H12.5V0h-2.316zM0 10.8h2.455V0H0zM8.586 0a8.627 8.627 0 01-2.511 6.128L9.468 10.8H6.436L2.749 5.723 3.7 5a6.218 6.218 0 002.484-5h2.4z"></path>
</svg>